<mxfile host="app.diagrams.net" modified="2022-05-30T09:47:54.510Z" agent="5.0 (Windows NT 10.0; Win64; x64) AppleWebKit/537.36 (KHTML, like Gecko) Chrome/101.0.4951.64 Safari/537.36 Edg/101.0.1210.53" etag="S0MBmfAJ80ERUJ6ydRzq" version="18.1.3" type="github">
  <diagram id="P9TnFpN5vygWZU6XICRD" name="Page-1">
    <mxGraphModel dx="692" dy="379" grid="1" gridSize="10" guides="1" tooltips="1" connect="1" arrows="1" fold="1" page="1" pageScale="1" pageWidth="1169" pageHeight="1654" math="0" shadow="0">
      <root>
        <mxCell id="0" />
        <mxCell id="1" parent="0" />
        <mxCell id="iGFhsTUaxY5pVnIJGuSF-1" value="" style="ellipse;whiteSpace=wrap;html=1;aspect=fixed;fillColor=#d5e8d4;strokeColor=#82b366;fontSize=14;" vertex="1" parent="1">
          <mxGeometry x="329" y="140" width="29" height="29" as="geometry" />
        </mxCell>
        <mxCell id="iGFhsTUaxY5pVnIJGuSF-2" value="" style="ellipse;whiteSpace=wrap;html=1;aspect=fixed;fillColor=#ffe6cc;strokeColor=#d79b00;fontSize=14;" vertex="1" parent="1">
          <mxGeometry x="488" y="140" width="29" height="29" as="geometry" />
        </mxCell>
        <mxCell id="iGFhsTUaxY5pVnIJGuSF-3" value="&lt;font face=&quot;Times New Roman&quot; style=&quot;font-size: 14px;&quot;&gt;:active&lt;/font&gt;" style="text;html=1;align=center;verticalAlign=middle;resizable=0;points=[];autosize=1;strokeColor=none;fillColor=none;fontSize=14;" vertex="1" parent="1">
          <mxGeometry x="354" y="144.5" width="50" height="20" as="geometry" />
        </mxCell>
        <mxCell id="iGFhsTUaxY5pVnIJGuSF-4" value=":inactive" style="text;html=1;align=center;verticalAlign=middle;resizable=0;points=[];autosize=1;strokeColor=none;fillColor=none;fontFamily=Times New Roman;fontSize=14;" vertex="1" parent="1">
          <mxGeometry x="513" y="144.5" width="60" height="20" as="geometry" />
        </mxCell>
        <mxCell id="iGFhsTUaxY5pVnIJGuSF-5" style="edgeStyle=none;rounded=0;orthogonalLoop=1;jettySize=auto;html=1;entryX=0.704;entryY=0.916;entryDx=0;entryDy=0;entryPerimeter=0;dashed=1;fontFamily=Times New Roman;fontSize=14;" edge="1" parent="1" source="iGFhsTUaxY5pVnIJGuSF-7" target="iGFhsTUaxY5pVnIJGuSF-8">
          <mxGeometry relative="1" as="geometry" />
        </mxCell>
        <mxCell id="iGFhsTUaxY5pVnIJGuSF-6" style="edgeStyle=none;rounded=0;orthogonalLoop=1;jettySize=auto;html=1;entryX=1;entryY=0;entryDx=0;entryDy=0;dashed=1;fontFamily=Times New Roman;fontSize=14;" edge="1" parent="1" source="iGFhsTUaxY5pVnIJGuSF-7" target="iGFhsTUaxY5pVnIJGuSF-9">
          <mxGeometry relative="1" as="geometry" />
        </mxCell>
        <mxCell id="iGFhsTUaxY5pVnIJGuSF-7" value="w" style="ellipse;whiteSpace=wrap;html=1;aspect=fixed;fillColor=#ffe6cc;strokeColor=#d79b00;fontFamily=Times New Roman;fontStyle=2;fontSize=14;" vertex="1" parent="1">
          <mxGeometry x="407" y="237" width="29" height="29" as="geometry" />
        </mxCell>
        <mxCell id="iGFhsTUaxY5pVnIJGuSF-8" value="" style="ellipse;whiteSpace=wrap;html=1;aspect=fixed;fillColor=#ffe6cc;strokeColor=#d79b00;fontSize=14;" vertex="1" parent="1">
          <mxGeometry x="378" y="193" width="29" height="29" as="geometry" />
        </mxCell>
        <mxCell id="iGFhsTUaxY5pVnIJGuSF-9" value="" style="ellipse;whiteSpace=wrap;html=1;aspect=fixed;fillColor=#ffe6cc;strokeColor=#d79b00;fontSize=14;" vertex="1" parent="1">
          <mxGeometry x="378" y="279" width="29" height="29" as="geometry" />
        </mxCell>
        <mxCell id="iGFhsTUaxY5pVnIJGuSF-10" value="" style="edgeStyle=none;rounded=0;orthogonalLoop=1;jettySize=auto;html=1;fontFamily=Times New Roman;dashed=1;fontSize=14;" edge="1" parent="1" source="iGFhsTUaxY5pVnIJGuSF-11" target="iGFhsTUaxY5pVnIJGuSF-15">
          <mxGeometry relative="1" as="geometry" />
        </mxCell>
        <mxCell id="iGFhsTUaxY5pVnIJGuSF-11" value="t" style="ellipse;whiteSpace=wrap;html=1;aspect=fixed;fillColor=#d5e8d4;strokeColor=#82b366;fontFamily=Times New Roman;fontStyle=2;fontSize=14;" vertex="1" parent="1">
          <mxGeometry x="290" y="275" width="29" height="29" as="geometry" />
        </mxCell>
        <mxCell id="iGFhsTUaxY5pVnIJGuSF-12" value="p" style="rounded=0;orthogonalLoop=1;jettySize=auto;html=1;entryX=0;entryY=0;entryDx=0;entryDy=0;fontFamily=Times New Roman;fontSize=14;fontStyle=2" edge="1" parent="1" source="iGFhsTUaxY5pVnIJGuSF-13" target="iGFhsTUaxY5pVnIJGuSF-15">
          <mxGeometry relative="1" as="geometry" />
        </mxCell>
        <mxCell id="iGFhsTUaxY5pVnIJGuSF-13" value="&lt;font face=&quot;Times New Roman&quot; style=&quot;font-size: 14px;&quot;&gt;u&lt;/font&gt;" style="ellipse;whiteSpace=wrap;html=1;aspect=fixed;fillColor=#d5e8d4;strokeColor=#82b366;fontStyle=2;fontSize=14;" vertex="1" parent="1">
          <mxGeometry x="290" y="198" width="29" height="29" as="geometry" />
        </mxCell>
        <mxCell id="iGFhsTUaxY5pVnIJGuSF-14" value="p" style="edgeStyle=none;rounded=0;orthogonalLoop=1;jettySize=auto;html=1;fontFamily=Times New Roman;entryX=0;entryY=0.5;entryDx=0;entryDy=0;fontStyle=2;fontSize=14;" edge="1" parent="1" source="iGFhsTUaxY5pVnIJGuSF-15" target="iGFhsTUaxY5pVnIJGuSF-7">
          <mxGeometry relative="1" as="geometry" />
        </mxCell>
        <mxCell id="iGFhsTUaxY5pVnIJGuSF-15" value="&lt;font face=&quot;Times New Roman&quot; style=&quot;font-size: 14px;&quot;&gt;v&lt;/font&gt;" style="ellipse;whiteSpace=wrap;html=1;aspect=fixed;fillColor=#d5e8d4;strokeColor=#82b366;fontStyle=2;fontSize=14;" vertex="1" parent="1">
          <mxGeometry x="335" y="237" width="29" height="29" as="geometry" />
        </mxCell>
        <mxCell id="iGFhsTUaxY5pVnIJGuSF-16" value="v" style="ellipse;whiteSpace=wrap;html=1;aspect=fixed;fillColor=#ffe6cc;strokeColor=#d79b00;fontFamily=Times New Roman;fontStyle=2;fontSize=14;" vertex="1" parent="1">
          <mxGeometry x="598" y="237" width="29" height="29" as="geometry" />
        </mxCell>
        <mxCell id="iGFhsTUaxY5pVnIJGuSF-17" value="W&lt;sub style=&quot;font-size: 14px;&quot;&gt;cv&lt;/sub&gt;" style="edgeStyle=none;rounded=0;orthogonalLoop=1;jettySize=auto;html=1;fontFamily=Times New Roman;fontStyle=2;fontSize=14;" edge="1" parent="1" source="iGFhsTUaxY5pVnIJGuSF-18" target="iGFhsTUaxY5pVnIJGuSF-16">
          <mxGeometry relative="1" as="geometry" />
        </mxCell>
        <mxCell id="iGFhsTUaxY5pVnIJGuSF-18" value="c" style="ellipse;whiteSpace=wrap;html=1;aspect=fixed;fillColor=#d5e8d4;strokeColor=#82b366;fontFamily=Times New Roman;fontStyle=2;fontSize=14;" vertex="1" parent="1">
          <mxGeometry x="517" y="281" width="29" height="29" as="geometry" />
        </mxCell>
        <mxCell id="iGFhsTUaxY5pVnIJGuSF-19" value="W&lt;sub style=&quot;font-size: 14px;&quot;&gt;bv&lt;/sub&gt;" style="edgeStyle=none;rounded=0;orthogonalLoop=1;jettySize=auto;html=1;fontFamily=Times New Roman;entryX=0;entryY=0.5;entryDx=0;entryDy=0;fontStyle=2;fontSize=14;" edge="1" parent="1" source="iGFhsTUaxY5pVnIJGuSF-20" target="iGFhsTUaxY5pVnIJGuSF-16">
          <mxGeometry relative="1" as="geometry" />
        </mxCell>
        <mxCell id="iGFhsTUaxY5pVnIJGuSF-20" value="b" style="ellipse;whiteSpace=wrap;html=1;aspect=fixed;fillColor=#d5e8d4;strokeColor=#82b366;fontFamily=Times New Roman;fontStyle=2;fontSize=14;" vertex="1" parent="1">
          <mxGeometry x="494" y="237" width="29" height="29" as="geometry" />
        </mxCell>
        <mxCell id="iGFhsTUaxY5pVnIJGuSF-21" value="W&lt;sub style=&quot;font-size: 14px;&quot;&gt;av&lt;/sub&gt;" style="edgeStyle=none;rounded=0;orthogonalLoop=1;jettySize=auto;html=1;fontFamily=Times New Roman;fontStyle=2;fontSize=14;" edge="1" parent="1" source="iGFhsTUaxY5pVnIJGuSF-22" target="iGFhsTUaxY5pVnIJGuSF-16">
          <mxGeometry relative="1" as="geometry" />
        </mxCell>
        <mxCell id="iGFhsTUaxY5pVnIJGuSF-22" value="a" style="ellipse;whiteSpace=wrap;html=1;aspect=fixed;fillColor=#d5e8d4;strokeColor=#82b366;fontFamily=Times New Roman;fontStyle=2;fontSize=14;" vertex="1" parent="1">
          <mxGeometry x="517" y="190" width="29" height="29" as="geometry" />
        </mxCell>
        <mxCell id="iGFhsTUaxY5pVnIJGuSF-23" value="Î¸" style="text;html=1;align=center;verticalAlign=middle;resizable=0;points=[];autosize=1;strokeColor=none;fillColor=none;fontFamily=Times New Roman;fontStyle=2;fontSize=14;" vertex="1" parent="1">
          <mxGeometry x="602.5" y="218" width="20" height="20" as="geometry" />
        </mxCell>
        <mxCell id="iGFhsTUaxY5pVnIJGuSF-24" value="IC" style="text;html=1;align=center;verticalAlign=middle;resizable=0;points=[];autosize=1;strokeColor=none;fillColor=none;fontFamily=Times New Roman;" vertex="1" parent="1">
          <mxGeometry x="338.5" y="327" width="22" height="18" as="geometry" />
        </mxCell>
        <mxCell id="iGFhsTUaxY5pVnIJGuSF-25" value="LT" style="text;html=1;align=center;verticalAlign=middle;resizable=0;points=[];autosize=1;strokeColor=none;fillColor=none;fontFamily=Times New Roman;" vertex="1" parent="1">
          <mxGeometry x="499" y="327" width="24" height="18" as="geometry" />
        </mxCell>
      </root>
    </mxGraphModel>
  </diagram>
</mxfile>
